<?xml version="1.0" encoding="UTF-8"?>
<svg width="74px" height="29px" viewBox="0 0 74 29" version="1.1" xmlns="http://www.w3.org/2000/svg" xmlns:xlink="http://www.w3.org/1999/xlink">
    <!-- Generator: Sketch 50 (54983) - http://www.bohemiancoding.com/sketch -->
    <title>Logo</title>
    <desc>Created with Sketch.</desc>
    <defs></defs>
    <g id="Logo" stroke="none" stroke-width="1" fill="none" fill-rule="evenodd">
        <g id="Group-4">
            <path d="M0,20.8910615 L0,8 L3.49395396,8 L3.49395396,12.9022346 L7.3641799,8 L11.3060767,8 L6.68330681,13.773743 L11.6285955,20.8910615 L7.61502787,20.8910615 L4.46151045,16.1522346 L3.49395396,17.1689944 L3.49395396,20.8910615 L0,20.8910615 Z M17.9176743,17.8589385 C18.3238112,17.8589385 18.6702168,17.7681573 18.9569017,17.5865922 C19.2435865,17.405027 19.4765144,17.1659698 19.6556925,16.8694134 C19.8348705,16.572857 19.9662657,16.2309144 20.0498821,15.8435754 C20.1334986,15.4562364 20.1753061,15.050747 20.1753061,14.627095 L20.1753061,8 L23.6692601,8 L23.6692601,14.627095 C23.6692601,15.5228164 23.5557824,16.3610296 23.3288236,17.1417598 C23.1018647,17.9224899 22.7494866,18.597297 22.2716785,19.1662011 C21.7938705,19.7351053 21.1936331,20.1829593 20.4709484,20.5097765 C19.7482637,20.8365938 18.8971809,21 17.9176743,21 C16.9023322,21 16.0333318,20.8275157 15.3106471,20.4825419 C14.5879625,20.1375681 13.9936976,19.6745839 13.5278347,19.0935754 C13.0619719,18.5125669 12.7215387,17.8377599 12.5065251,17.0691341 C12.2915115,16.3005083 12.1840063,15.4865034 12.1840063,14.627095 L12.1840063,8 L15.6779603,8 L15.6779603,14.627095 C15.6779603,15.050747 15.7197678,15.4592625 15.8033842,15.8526536 C15.8870007,16.2460448 16.0183959,16.5910134 16.1975739,16.8875698 C16.3767519,17.1841262 16.6066936,17.4201574 16.8874059,17.5956704 C17.1681181,17.7711834 17.5115375,17.8589385 17.9176743,17.8589385 Z M29.1699596,14.5544693 L29.1699596,20.8910615 L25.6760056,20.8910615 L25.6760056,8 L28.3994979,8 L33.506046,14.5544693 L33.506046,8 L37,8 L37,20.8910615 L34.2227545,20.8910615 L29.1699596,14.5544693 Z" id="KUN" fill="#213462"></path>
            <circle id="Oval-3" fill="#213462" cx="59.5" cy="14.5" r="14.5"></circle>
            <circle id="Oval-3-Copy" fill="#213462" cx="40.5" cy="19.5" r="1.5"></circle>
            <path d="M53.9906396,17.8589385 C54.4149787,17.8589385 54.7769096,17.7681573 55.0764431,17.5865922 C55.3759765,17.405027 55.6193438,17.1659698 55.8065523,16.8694134 C55.9937607,16.572857 56.1310448,16.2309144 56.2184087,15.8435754 C56.3057727,15.4562364 56.349454,15.050747 56.349454,14.627095 L56.349454,8 L60,8 L60,14.627095 C60,15.5228164 59.8814364,16.3610296 59.6443058,17.1417598 C59.4071751,17.9224899 59.0390041,18.597297 58.5397816,19.1662011 C58.0405591,19.7351053 57.4134203,20.1829593 56.6583463,20.5097765 C55.9032724,20.8365938 55.0140457,21 53.9906396,21 C52.9297919,21 52.0218446,20.8275157 51.2667707,20.4825419 C50.5116967,20.1375681 49.8907981,19.6745839 49.4040562,19.0935754 C48.9173143,18.5125669 48.5616236,17.8377599 48.3369735,17.0691341 C48.1123234,16.3005083 48,15.4865034 48,14.627095 L48,8 L51.650546,8 L51.650546,14.627095 C51.650546,15.050747 51.6942273,15.4592625 51.7815913,15.8526536 C51.8689552,16.2460448 52.0062393,16.5910134 52.1934477,16.8875698 C52.3806562,17.1841263 52.6209034,17.4201574 52.9141966,17.5956704 C53.2074898,17.7711834 53.5663005,17.8589385 53.9906396,17.8589385 Z M61,18.3450704 L66.8969805,11.1126761 L61.2664298,11.1126761 L61.2664298,8 L70.8934281,8 L70.8934281,10.6549296 L65.3516874,17.8873239 L71,17.8873239 L71,21 L61,21 L61,18.3450704 Z" id="UZ" fill="#FFFFFF"></path>
        </g>
    </g>
</svg>